<svg xmlns="http://www.w3.org/2000/svg" width="128" height="128" viewBox="0 0 128 128">
  <circle cx="64" cy="64" r="56" fill="#475569"/>
  <path fill="#fff" d="M91.1 37.2 85.5 30.5A7.5 7.5 0 0 0 80.9 28H47.1a7.5 7.5 0 0 0-4.6 2.5l-5.6 6.7a8.5 8.5 0 0 0-2.2 5.1v50a8.5 8.5 0 0 0 8.5 8.5h41.6a8.5 8.5 0 0 0 8.5-8.5v-50a8.5 8.5 0 0 0-2.2-5.1ZM64 85.9 45.7 67.6h11.6v-6.7h13.4v6.7h11.6L64 85.9ZM43.7 36.3l2.7-3.3h35.8l3.1 3.3H43.7Z"/>
  <circle cx="91" cy="91" r="25" fill="#15803d" stroke="#fff" stroke-width="4"/>
  <path fill="#fff" d="m80 90 7 7 15-16 6 6-21 21-13-13 6-5Z"/>
</svg>
